<svg width="1200" height="630" viewBox="0 0 1200 630" fill="none" xmlns="http://www.w3.org/2000/svg">
  <rect width="1200" height="630" fill="#08111F"/>
  <circle cx="169" cy="83" r="240" fill="#2563EB" fill-opacity="0.28"/>
  <circle cx="1038" cy="64" r="260" fill="#7C3AED" fill-opacity="0.24"/>
  <rect x="84" y="92" width="1032" height="446" rx="42" fill="#0F172A" fill-opacity="0.74" stroke="#334155"/>
  <rect x="134" y="152" width="86" height="86" rx="22" fill="#111827"/>
  <path d="M158 195C158 184.507 166.507 176 177 176H196V193H177C175.895 193 175 193.895 175 195C175 196.105 175.895 197 177 197H198V214H177C166.507 214 158 205.493 158 195Z" fill="url(#paint0_linear_5_2)"/>
  <text x="134" y="328" fill="white" font-family="Inter, Arial, sans-serif" font-size="74" font-weight="800" letter-spacing="-4">AgentFlow Docs</text>
  <text x="136" y="397" fill="#CBD5E1" font-family="Inter, Arial, sans-serif" font-size="34" font-weight="500">Production-grade multi-agent systems from first agent to deployment.</text>
  <defs>
    <linearGradient id="paint0_linear_5_2" x1="158" y1="176" x2="198" y2="214" gradientUnits="userSpaceOnUse">
      <stop stop-color="#38BDF8"/>
      <stop offset="1" stop-color="#7C3AED"/>
    </linearGradient>
  </defs>
</svg>
